# xmcd
#
# Track frame offsets: 
#        150
#        21770
#        45777
#        67508
#        93331
#        110123
#        129402
#        145462
#        162278
#        177467
#        198052
#        217223
#
# Disc length: 3172 seconds
#
# Revision: 2
# Processed by: cddbd v1.5.2PL0 Copyright (c) Steve Scherf et al.
# Submitted via: ExactAudioCopy v1.0b6
#
DISCID=a20c620c
DTITLE=Tingvall Trio - Cirklar
DYEAR=2017
DGENRE=Jazz
TTITLE0=Evighetsmaskinen
TTITLE1=Bumerang
TTITLE2=Vulkanen
TTITLE3=Bland Molnen
TTITLE4=Skansk Blues
TTITLE5=Cirklar
TTITLE6=Sjuan
TTITLE7=Det Gröna Hotellet
TTITLE8=Tidlös
TTITLE9=Psalm
TTITLE10=Karusellen
TTITLE11=Elis Visa
EXTD=
EXTT0=
EXTT1=
EXTT2=
EXTT3=
EXTT4=
EXTT5=
EXTT6=
EXTT7=
EXTT8=
EXTT9=
EXTT10=
EXTT11=
PLAYORDER=
